<svg xmlns="http://www.w3.org/2000/svg" version="1.1" xmlns:xlink="http://www.w3.org/1999/xlink" xmlns:svgjs="http://svgjs.dev/svgjs" width="2000" height="2000" viewBox="0 0 2000 2000"><g transform="matrix(1,0,0,1,-0.28443113772425477,-0.28443113772459583)"><svg viewBox="0 0 334 334" data-background-color="#ffffff" preserveAspectRatio="xMidYMid meet" height="2000" width="2000" xmlns="http://www.w3.org/2000/svg" xmlns:xlink="http://www.w3.org/1999/xlink"><g id="tight-bounds" transform="matrix(1,0,0,1,0.04749999999998522,0.04750000000001364)"><svg viewBox="0 0 333.90454557049503 333.90454557049503" height="333.90454557049503" width="333.90454557049503"><g><svg></svg></g><g><svg viewBox="0 0 333.90454557049503 333.90454557049503" height="333.90454557049503" width="333.90454557049503"><g><path d="M0 166.952c0-92.205 74.747-166.952 166.952-166.952 92.205 0 166.952 74.747 166.953 166.952 0 92.205-74.747 166.952-166.953 166.953-92.205 0-166.952-74.747-166.952-166.953zM166.952 327.306c88.561 0 160.354-71.793 160.354-160.354 0-88.561-71.793-160.354-160.354-160.354-88.561 0-160.354 71.793-160.354 160.354 0 88.561 71.793 160.354 160.354 160.354z" data-fill-palette-color="tertiary" fill="#111111" stroke="transparent"></path><ellipse rx="160.27418187383762" ry="160.27418187383762" cx="166.95227278524752" cy="166.95227278524752" fill="#111111" stroke="transparent" stroke-width="0" fill-opacity="1" data-fill-palette-color="tertiary"></ellipse></g><g transform="matrix(1,0,0,1,68.15984309798127,71.17305217166896)"><svg viewBox="0 0 197.5848593745325 191.55844122715712" height="191.55844122715712" width="197.5848593745325"><g><svg viewBox="0 0 197.5848593745325 191.55844122715712" height="191.55844122715712" width="197.5848593745325"><g><svg viewBox="0 0 213.1584412271571 206.65702253270848" height="191.55844122715712" width="197.5848593745325"><g transform="matrix(1,0,0,1,0,127.72233059377757)"><svg viewBox="0 0 213.1584412271571 78.93469193893091" height="78.93469193893091" width="213.1584412271571"><g id="textblocktransform"><svg viewBox="0 0 213.1584412271571 78.93469193893091" height="78.93469193893091" width="213.1584412271571" id="textblock"><g><svg viewBox="0 0 213.1584412271571 78.93469193893091" height="78.93469193893091" width="213.1584412271571"><g transform="matrix(1,0,0,1,0,0)"><svg width="213.1584412271571" viewBox="1.7 -37.4 122.59 45.4" height="78.93469193893091" data-palette-color="#ffffff"><path d="M22.9-9.95L22.9-6.75 1.7-15.1 1.7-18.1 22.9-26.45 22.9-23.25 12.1-19.2 5.45-16.7 5.45-16.5 12.1-14 22.9-9.95ZM36.85 0.6L36.85 0.6Q35 0.6 33.25 0.08 31.5-0.45 29.97-1.35 28.45-2.25 27.3-3.3L27.3-3.3 29-5.8Q30.6-4.5 32.52-3.48 34.45-2.45 36.85-2.45L36.85-2.45Q39.7-2.45 41.17-3.93 42.65-5.4 42.65-7.85L42.65-7.85Q42.65-10 41.62-11.38 40.6-12.75 39-13.73 37.4-14.7 35.6-15.55 33.8-16.4 32.2-17.48 30.6-18.55 29.57-20.18 28.55-21.8 28.55-24.2L28.55-24.2Q28.55-26.7 29.67-28.58 30.8-30.45 32.77-31.48 34.75-32.5 37.3-32.5L37.3-32.5Q40.25-32.5 42.12-31.43 44-30.35 45.5-28.75L45.5-28.75 43.55-26.55Q42.15-27.95 40.8-28.7 39.45-29.45 37.35-29.45L37.35-29.45Q35-29.45 33.57-28.05 32.15-26.65 32.15-24.4L32.15-24.4Q32.15-22.5 33.15-21.28 34.15-20.05 35.77-19.18 37.4-18.3 39.17-17.48 40.95-16.65 42.57-15.5 44.2-14.35 45.2-12.6 46.2-10.85 46.2-8.1L46.2-8.1Q46.2-5.45 45.02-3.5 43.85-1.55 41.72-0.48 39.6 0.6 36.85 0.6ZM38.5 5.5L35.75 5.5 35.75-0.6 38.5-0.6 38.5 5.5ZM38.5-31.1L35.75-31.1 35.75-37.4 38.5-37.4 38.5-31.1ZM65 0.6L65 0.6Q61.55 0.6 58.9-1.4 56.25-3.4 54.77-7.1 53.3-10.8 53.3-15.95L53.3-15.95Q53.3-21.1 54.85-24.8 56.4-28.5 59.17-30.5 61.95-32.5 65.7-32.5L65.7-32.5Q67.95-32.5 69.87-31.38 71.8-30.25 73.05-28.6L73.05-28.6 70.9-26.55Q69.85-27.9 68.55-28.73 67.25-29.55 65.6-29.55L65.6-29.55Q62.85-29.55 60.95-27.9 59.05-26.25 58.05-23.23 57.05-20.2 57.05-16.05L57.05-16.05Q57.05-11.85 58.02-8.78 59-5.7 60.82-4.03 62.65-2.35 65.2-2.35L65.2-2.35Q67.15-2.35 68.57-3.28 70-4.2 71.35-6L71.35-6 73.55-4.05Q71.9-1.9 69.82-0.65 67.75 0.6 65 0.6ZM68.35-11.85L50.35-11.85 50.35-13.9 53.7-14.1 68.35-14.1 68.35-11.85ZM70.35-17.55L50.35-17.55 50.35-19.6 53.8-19.8 70.35-19.8 70.35-17.55ZM86.99 8L84.29 8 98.14-35.5 100.84-35.5 86.99 8ZM124.29-15.1L103.09-6.75 103.09-9.95 113.94-14 120.59-16.5 120.59-16.7 113.94-19.2 103.09-23.25 103.09-26.45 124.29-18.1 124.29-15.1Z" opacity="1" transform="matrix(1,0,0,1,0,0)" fill="#ffffff" class="wordmark-text-0" data-fill-palette-color="quaternary" id="text-0"></path></svg></g></svg></g></svg></g></svg></g><g transform="matrix(1,0,0,1,47.79323813169252,0)"><svg viewBox="0 0 117.57196496377207 109.08774425960252" height="109.08774425960252" width="117.57196496377207"><g><svg xmlns="http://www.w3.org/2000/svg" xmlns:xlink="http://www.w3.org/1999/xlink" version="1.1" x="0" y="0" viewBox="2.2 5.698681157268527 95.6 88.70131884273147" enable-background="new 0 0 100 100" xml:space="preserve" height="109.08774425960252" width="117.57196496377207" class="icon-icon-0" data-fill-palette-color="quaternary" id="icon-0"><path d="M97.8 82.2V18c0-6.8-5.5-12.3-12.3-12.3H14.5C7.7 5.6 2.2 11.2 2.2 18v64.3c0 6.7 5.4 12.1 12.1 12.1h71.3C92.4 94.4 97.8 88.9 97.8 82.2zM38.6 13.7c2.2 0 3.9 1.8 3.9 3.9s-1.8 3.9-3.9 3.9c-2.2 0-3.9-1.8-3.9-3.9S36.4 13.7 38.6 13.7zM27.2 13.7L27.2 13.7c1.9 0 3.5 1.3 3.8 3.1 0.1 0.3 0.1 0.5 0.1 0.8s0 0.5-0.1 0.8c-0.4 1.8-1.9 3.1-3.8 3.1h0c-2.2 0-3.9-1.8-3.9-3.9S25 13.7 27.2 13.7zM15.7 13.7c2.2 0 3.9 1.8 3.9 3.9s-1.8 3.9-3.9 3.9-3.9-1.8-3.9-3.9S13.5 13.7 15.7 13.7zM15.8 86.4c-3.1 0-5.6-2.5-5.6-5.6V29h79.6v51.8c0 3.1-2.5 5.6-5.6 5.6H15.8zM17 36.4h66V54H17V36.4zM40.9 79.4h18.1V61H40.9V79.4zM46 66.1H54v8.3H46V66.1zM64.9 79.4H83V61H64.9V79.4zM70 66.1h7.9v8.3H70V66.1zM17 79.4h18.1V61H17V79.4zM22.1 66.1H30v8.3h-7.9V66.1z" fill="#ffffff" data-fill-palette-color="quaternary"></path></svg></g></svg></g><g></g></svg></g></svg></g></svg></g></svg></g><defs></defs></svg><rect width="333.90454557049503" height="333.90454557049503" fill="none" stroke="none" visibility="hidden"></rect></g></svg></g></svg>